<?xml version="1.0" encoding="utf-8"?>
<svg viewBox="0 0 1212 345" xmlns="http://www.w3.org/2000/svg">
  <defs>
    <style>
      .cls-1 {
        fill: #76777a;
      }

      .cls-1, .cls-2, .cls-3 {
        stroke-width: 0px;
      }

      .cls-2 {
        fill: #84286b;
      }

      .cls-3 {
        fill: #73797c;
      }
    </style>
  </defs>
  <g style="" transform="matrix(1.4932279586791992, 0, 0, 1.449957013130188, 2.6235480308532715, 0)">
    <g>
      <path class="cls-1" d="M272.3,67.65v36.77h-18.09V4.51c12.06-.51,19.12-.76,21.17-.76,16.1,0,27.88,2.43,35.33,7.27,7.45,4.85,11.17,12.42,11.17,22.71,0,22.92-13.79,34.4-41.35,34.4-2.05,0-4.78-.16-8.22-.47ZM272.3,19.86v32.02c3.07.31,5.48.46,7.24.46,8.27,0,14.3-1.34,18.11-4.06,3.8-2.71,5.71-7.1,5.71-13.21,0-10.38-8.52-15.57-25.56-15.57-1.9,0-3.73.12-5.5.34Z"/>
      <path class="cls-1" d="M328.45,4.09l17.4-4.09v82.18c0,9.01,2.74,14.37,8.21,16.12-2.69,5-7.29,7.5-13.78,7.5-7.89,0-11.83-5.37-11.83-16.11V4.09Z"/>
      <path class="cls-1" d="M404.66,97.14c-1.58,2.54-4.32,4.63-8.25,6.25-3.93,1.61-8.02,2.42-12.29,2.42-8.03,0-14.33-1.97-18.94-5.9-4.59-3.94-6.89-9.53-6.89-16.77,0-8.45,3.24-15.08,9.71-19.85,6.47-4.79,15.67-7.17,27.6-7.17,2.04,0,4.45.32,7.24,1.02,0-8.6-5.54-12.9-16.64-12.9-6.54,0-12.02,1.07-16.42,3.2l-3.76-13.24c5.99-2.82,13.11-4.22,21.38-4.22,11.36,0,19.7,2.53,24.98,7.6,5.3,5.07,7.94,14.69,7.94,28.84v15.64c0,9.72,1.99,15.86,5.99,18.35-1.44,2.46-3.05,3.96-4.81,4.54s-3.79.86-6.06.86c-2.51,0-4.76-.91-6.76-2.74-2-1.81-3.34-3.8-4.04-5.93ZM403,70.03c-2.98-.58-5.2-.88-6.69-.88-13.74,0-20.61,4.41-20.61,13.23,0,6.56,3.88,9.83,11.62,9.83,10.45,0,15.67-5.13,15.67-15.36v-6.82Z"/>
      <path class="cls-1" d="M482.76,104.43v-42.24c0-6.23-1.22-10.78-3.66-13.65-2.43-2.86-6.41-4.3-11.93-4.3-2.56,0-5.29.7-8.19,2.11-2.9,1.42-5.17,3.17-6.79,5.26v52.82h-17.4V31.34h12.53l3.2,6.82c4.74-5.46,11.73-8.19,20.96-8.19s15.86,2.6,21,7.81c5.13,5.22,7.7,12.48,7.7,21.81v44.84h-17.4Z"/>
      <path class="cls-1" d="M562.59,104.43v-42.24c0-6.23-1.21-10.78-3.65-13.65-2.43-2.86-6.41-4.3-11.93-4.3-2.56,0-5.29.7-8.19,2.11-2.9,1.42-5.17,3.17-6.79,5.26v52.82h-17.41V31.34h12.53l3.2,6.82c4.74-5.46,11.72-8.19,20.96-8.19s15.87,2.6,20.99,7.81c5.13,5.22,7.7,12.48,7.7,21.81v44.84h-17.4Z"/>
      <path class="cls-1" d="M599.13,104.43v-59.1h-9.53v-13.99h27.14v73.09h-17.61ZM608.1,3c2.78,0,5.18.98,7.14,2.91,1.97,1.93,2.96,4.26,2.96,6.99s-.99,5.07-2.96,7c-1.96,1.93-4.36,2.9-7.14,2.9s-5.16-.97-7.14-2.9c-1.97-1.93-2.95-4.27-2.95-7s.98-5.07,2.95-6.99c1.97-1.93,4.35-2.91,7.14-2.91Z"/>
      <path class="cls-1" d="M680.62,104.43v-42.24c0-6.23-1.2-10.78-3.64-13.65-2.44-2.86-6.43-4.3-11.95-4.3-2.54,0-5.27.7-8.18,2.11-2.89,1.42-5.15,3.17-6.79,5.26v52.82h-17.4V31.34h12.53l3.21,6.82c4.73-5.46,11.71-8.19,20.95-8.19s15.86,2.6,21,7.81c5.12,5.22,7.69,12.48,7.69,21.81v44.84h-17.41Z"/>
      <path class="cls-1" d="M711.26,123.21l10.99-13.3c6.08,5.45,12.86,8.19,20.33,8.19,5.02,0,9.14-.73,12.39-2.19,3.25-1.46,4.88-3.46,4.88-6,0-4.32-3.6-6.5-10.79-6.5-1.95,0-4.86.24-8.72.69-3.84.44-6.75.69-8.7.69-11.97,0-17.96-4.21-17.96-12.63,0-2.42.99-4.79,2.99-7.1,1.99-2.32,4.31-4.03,6.96-5.12-8.5-5.43-12.74-13.08-12.74-23,0-7.82,2.93-14.31,8.77-19.42,5.85-5.12,13.03-7.68,21.58-7.68,6.69,0,12.28,1.22,16.79,3.69l6.82-7.78,12.05,10.7-8.3,5.94c2.89,4.28,4.32,9.33,4.32,15.16,0,8.33-2.57,14.98-7.76,19.96-5.18,4.98-11.7,7.47-19.6,7.47-1.25,0-2.93-.11-5-.33l-2.87-.42c-.31,0-1.55.5-3.73,1.47-2.15.98-3.22,1.98-3.22,3.04,0,1.82,1.6,2.73,4.81,2.73,1.42,0,3.85-.34,7.23-1.03,3.39-.69,6.3-1.03,8.7-1.03,16.95,0,25.42,6.67,25.42,20.01,0,7.37-3.39,13.16-10.17,17.37-6.79,4.2-14.96,6.31-24.5,6.31-11.43,0-21.76-3.31-30.99-9.9ZM728.67,57c0,4.32,1.21,7.81,3.64,10.41,2.44,2.61,5.72,3.92,9.85,3.92s7.31-1.26,9.55-3.82c2.22-2.55,3.34-6.04,3.34-10.51,0-3.68-1.21-6.8-3.58-9.35-2.4-2.54-5.49-3.82-9.3-3.82s-7.23,1.23-9.75,3.69c-2.5,2.45-3.75,5.61-3.75,9.48Z"/>
    </g>
    <g>
      <path class="cls-1" d="M272.3,191.81v36.78h-18.09v-99.93c12.06-.49,19.12-.75,21.16-.75,16.1,0,27.88,2.43,35.34,7.27,7.45,4.85,11.17,12.41,11.17,22.71,0,22.92-13.79,34.39-41.36,34.39-2.04,0-4.78-.15-8.22-.47ZM272.3,144.02v32c3.07.33,5.48.48,7.24.48,8.26,0,14.3-1.34,18.1-4.07,3.81-2.7,5.72-7.11,5.72-13.2,0-10.38-8.53-15.57-25.56-15.57-1.91,0-3.74.11-5.5.34Z"/>
      <path class="cls-1" d="M320.95,191.87c0-11.15,3.29-20.21,9.85-27.24,6.57-6.99,15.24-10.5,26.01-10.5,11.32,0,20.12,3.37,26.38,10.1,6.26,6.73,9.39,15.95,9.39,27.64s-3.19,20.92-9.57,27.78c-6.38,6.87-15.12,10.32-26.21,10.32s-20.14-3.46-26.43-10.42c-6.29-6.94-9.43-16.17-9.43-27.68ZM339.05,191.87c0,16.1,5.92,24.16,17.76,24.16,5.42,0,9.72-2.08,12.91-6.28,3.18-4.2,4.77-10.14,4.77-17.88,0-15.88-5.89-23.83-17.68-23.83-5.43,0-9.76,2.09-12.95,6.29-3.2,4.18-4.81,10.03-4.81,17.54Z"/>
      <path class="cls-1" d="M404.83,169.21h-8.64v-13.71h8.64v-14.88l17.4-6.29v21.17h20.46v13.71h-20.46v32.01c0,5.23.84,8.93,2.51,11.09,1.67,2.17,4.6,3.24,8.77,3.24s8.08-1.12,11.7-3.35v15.71c-4.03,1.36-9.8,2.05-17.27,2.05s-13.13-2.06-17.12-6.19c-3.99-4.13-5.99-9.97-5.99-17.57v-37Z"/>
      <path class="cls-1" d="M520.93,197.27h-53.26c.32,5.83,2.37,10.35,6.13,13.58,3.76,3.23,8.81,4.84,15.18,4.84,7.93,0,13.96-2.02,18.1-6.08l6.75,13.05c-6.13,4.87-15.27,7.31-27.43,7.31-11.37,0-20.36-3.27-26.97-9.79-6.62-6.54-9.92-15.65-9.92-27.35s3.63-20.84,10.9-27.99c7.26-7.14,15.97-10.71,26.13-10.71,10.83,0,19.5,3.17,26.05,9.49,6.53,6.32,9.81,14.37,9.81,24.16,0,2.09-.49,5.26-1.46,9.49ZM468.3,184.43h36.61c-1.2-10.7-7.24-16.05-18.09-16.05-9.93,0-16.11,5.35-18.52,16.05Z"/>
      <path class="cls-1" d="M579.95,228.59v-42.24c0-6.23-1.23-10.78-3.66-13.65-2.43-2.86-6.4-4.31-11.94-4.31-2.55,0-5.29.71-8.19,2.12-2.9,1.41-5.16,3.17-6.77,5.26v52.82h-17.4v-73.09h12.52l3.2,6.82c4.74-5.47,11.72-8.2,20.96-8.2s15.86,2.6,20.98,7.81c5.13,5.23,7.71,12.48,7.71,21.82v44.84h-17.41Z"/>
      <path class="cls-1" d="M614.47,169.21h-8.65v-13.71h8.65v-14.88l17.39-6.29v21.17h20.46v13.71h-20.46v32.01c0,5.23.84,8.93,2.51,11.09,1.68,2.17,4.61,3.24,8.77,3.24s8.08-1.12,11.7-3.35v15.71c-4.03,1.36-9.79,2.05-17.27,2.05s-13.14-2.06-17.13-6.19c-3.99-4.13-5.97-9.97-5.97-17.57v-37Z"/>
      <path class="cls-1" d="M673.01,228.59v-59.1h-9.53v-13.99h27.15v73.09h-17.62ZM681.99,127.16c2.78,0,5.16.95,7.13,2.9,1.97,1.94,2.96,4.27,2.96,6.99s-.99,5.08-2.96,7.01c-1.97,1.92-4.35,2.89-7.13,2.89s-5.16-.97-7.13-2.89c-1.98-1.93-2.97-4.28-2.97-7.01s.99-5.06,2.97-6.99c1.97-1.94,4.35-2.9,7.13-2.9Z"/>
      <path class="cls-1" d="M748.04,221.29c-1.57,2.55-4.33,4.63-8.25,6.26-3.92,1.61-8.02,2.42-12.3,2.42-8.02,0-14.33-1.98-18.92-5.9-4.6-3.95-6.9-9.53-6.9-16.76,0-8.46,3.25-15.1,9.72-19.86,6.48-4.79,15.68-7.18,27.61-7.18,2.03,0,4.45.33,7.23,1.03,0-8.6-5.54-12.91-16.63-12.91-6.56,0-12.02,1.07-16.44,3.21l-3.76-13.25c5.98-2.82,13.11-4.22,21.37-4.22,11.37,0,19.69,2.53,24.99,7.6,5.3,5.08,7.94,14.7,7.94,28.85v15.64c0,9.72,1.99,15.85,5.99,18.35-1.45,2.45-3.04,3.96-4.81,4.54-1.77.57-3.79.86-6.07.86-2.5,0-4.75-.92-6.76-2.74-1.98-1.81-3.34-3.79-4.03-5.94ZM746.37,194.19c-2.96-.59-5.2-.9-6.68-.9-13.74,0-20.61,4.43-20.61,13.24,0,6.57,3.87,9.84,11.63,9.84,10.45,0,15.66-5.13,15.66-15.36v-6.82Z"/>
      <path class="cls-3" d="M781.15,128.25l17.42-4.09v82.19c0,8.99,2.72,14.36,8.2,16.09-2.7,5.02-7.29,7.52-13.78,7.52-7.9,0-11.85-5.37-11.85-16.12v-85.59Z"/>
    </g>
  </g>
  <path class="cls-2" d="M 299.597 0.918 L 44.31 0.918 C 19.847 0.918 0 20.473 0 44.574 L 0 296.081 C 0 320.213 19.847 339.737 44.31 339.737 L 299.597 339.737 C 324.075 339.737 343.907 320.198 343.907 296.081 L 343.907 44.574 C 343.907 20.473 324.075 0.918 299.597 0.918 L 299.597 0.918 Z M 162.248 325.768 L 16.088 181.779 L 94.273 181.779 C 131.816 181.779 162.248 211.762 162.248 248.766 L 162.248 325.783 L 162.248 325.768 Z M 162.248 93.919 C 162.248 130.909 131.816 160.906 94.273 160.906 L 16.073 160.906 L 162.248 16.888 L 162.248 93.934 L 162.248 93.919 Z M 183.478 16.858 L 329.653 160.862 L 251.484 160.862 C 213.94 160.862 183.493 130.864 183.493 93.845 L 183.493 16.858 L 183.478 16.858 Z M 183.478 325.827 L 183.478 248.796 C 183.478 211.806 213.925 181.794 251.484 181.794 L 329.653 181.794 L 183.478 325.812 L 183.478 325.827 Z" style=""/>
</svg>
